<svg id="Layer_1" data-name="Layer 1" xmlns="http://www.w3.org/2000/svg" xmlns:xlink="http://www.w3.org/1999/xlink" viewBox="0 0 1786 1010"><defs><style>.cls-1,.cls-5,.cls-6{fill:none;}.cls-2{fill:#fff;}.cls-3{clip-path:url(#clip-path);}.cls-4{clip-path:url(#clip-path-2);}.cls-5{stroke:#b8b8b8;}.cls-6{stroke:#000;stroke-linecap:square;}.cls-7{clip-path:url(#clip-path-3);}.cls-8{clip-path:url(#clip-path-4);}.cls-9{clip-path:url(#clip-path-5);}.cls-10{clip-path:url(#clip-path-6);}.cls-11{clip-path:url(#clip-path-7);}.cls-12{clip-path:url(#clip-path-8);}.cls-13{fill:#991004;}.cls-14{fill:#a5a5a5;}.cls-15{fill:#65758e;}.cls-16{fill:#6d7472;}.cls-17{isolation:isolate;}.cls-18{clip-path:url(#clip-path-10);}.cls-19{clip-path:url(#clip-path-11);}.cls-20{clip-path:url(#clip-path-12);}.cls-21{clip-path:url(#clip-path-13);}.cls-22{clip-path:url(#clip-path-15);}.cls-23{clip-path:url(#clip-path-16);}.cls-24{clip-path:url(#clip-path-17);}.cls-25{clip-path:url(#clip-path-18);}</style><clipPath id="clip-path"><rect class="cls-1" x="137.04" y="109.46" width="1534.3" height="86"/></clipPath><clipPath id="clip-path-2"><rect class="cls-1" x="-98" y="-70" width="1920" height="1080"/></clipPath><clipPath id="clip-path-3"><rect class="cls-1" x="128.87" y="858.19" width="18.33" height="42"/></clipPath><clipPath id="clip-path-4"><rect class="cls-1" x="504.28" y="858.19" width="33.66" height="42"/></clipPath><clipPath id="clip-path-5"><rect class="cls-1" x="887.36" y="858.19" width="33.66" height="42"/></clipPath><clipPath id="clip-path-6"><rect class="cls-1" x="1270.43" y="858.19" width="33.66" height="42"/></clipPath><clipPath id="clip-path-7"><rect class="cls-1" x="1653.5" y="858.19" width="33.66" height="42"/></clipPath><clipPath id="clip-path-8"><rect class="cls-1" x="138.04" y="234.46" width="1532.3" height="606.62"/></clipPath><clipPath id="clip-path-10"><rect class="cls-1" x="330" y="716" width="172" height="67"/></clipPath><clipPath id="clip-path-11"><rect class="cls-1" x="357" y="716" width="109" height="69"/></clipPath><clipPath id="clip-path-12"><rect class="cls-1" x="1306" y="578" width="166" height="65"/></clipPath><clipPath id="clip-path-13"><rect class="cls-1" x="1315" y="577" width="120" height="64"/></clipPath><clipPath id="clip-path-15"><rect class="cls-1" x="682" y="437" width="166" height="65"/></clipPath><clipPath id="clip-path-16"><rect class="cls-1" x="691" y="435" width="120" height="64"/></clipPath><clipPath id="clip-path-17"><rect class="cls-1" x="559" y="295" width="166" height="65"/></clipPath><clipPath id="clip-path-18"><rect class="cls-1" x="568" y="294" width="120" height="64"/></clipPath></defs><title>Artboard 1</title><rect class="cls-2" width="1786" height="1010"/><g class="cls-3"><path d="M793.95,176l-10.59-18.56h-7.91V176h-5.63V132h13.8a28,28,0,0,1,6.16.64,13.19,13.19,0,0,1,4.86,2.11,10,10,0,0,1,3.18,3.82,13.12,13.12,0,0,1,1.14,5.76,12.12,12.12,0,0,1-2.68,8.24,13.66,13.66,0,0,1-7.17,4.22L800.31,176Zm-18.49-23.12h7.37q5.16,0,7.87-2.11t2.71-6.4q0-4.35-2.71-6.1t-7.87-1.74h-7.37Z"/><path d="M805.07,159.79a19.71,19.71,0,0,1,1.24-7.2,16.85,16.85,0,0,1,3.28-5.39,14.24,14.24,0,0,1,4.66-3.38,13.12,13.12,0,0,1,5.43-1.17,13.65,13.65,0,0,1,5.53,1.07,10.79,10.79,0,0,1,4.09,3.08,14.16,14.16,0,0,1,2.51,4.82,21.27,21.27,0,0,1,.87,6.3,18.78,18.78,0,0,1-.2,3h-22a12.94,12.94,0,0,0,3.25,8.38,10,10,0,0,0,7.6,3.08,12.81,12.81,0,0,0,4.32-.7,19.11,19.11,0,0,0,3.79-1.84l1.94,3.62a27.74,27.74,0,0,1-4.76,2.34,16.53,16.53,0,0,1-6,1,16,16,0,0,1-6.13-1.17,14.52,14.52,0,0,1-5-3.35,15.5,15.5,0,0,1-3.32-5.33A19.93,19.93,0,0,1,805.07,159.79Zm22.78-2.48q0-5-2.11-7.67a7.15,7.15,0,0,0-5.93-2.65,8,8,0,0,0-3.32.7,9.17,9.17,0,0,0-2.85,2,10.71,10.71,0,0,0-2.11,3.22,14.83,14.83,0,0,0-1.11,4.39Z"/><path d="M838.23,167.56a9,9,0,0,1,4.79-8.21q4.79-2.85,15.24-4a15,15,0,0,0-.3-3,7.2,7.2,0,0,0-1.07-2.61,5.82,5.82,0,0,0-2-1.84,6.75,6.75,0,0,0-3.28-.7,13.13,13.13,0,0,0-5.33,1.07,26.34,26.34,0,0,0-4.39,2.41l-2.21-3.82A35.56,35.56,0,0,1,845.2,144a18.57,18.57,0,0,1,7.24-1.37q6,0,8.64,3.65t2.68,9.75v20h-4.56l-.47-3.89h-.13a27,27,0,0,1-5.06,3.32,12.52,12.52,0,0,1-5.73,1.37,10,10,0,0,1-6.87-2.41A8.66,8.66,0,0,1,838.23,167.56Zm5.43-.4a4.65,4.65,0,0,0,1.64,4,6.65,6.65,0,0,0,4.05,1.21,9.47,9.47,0,0,0,4.46-1.11,21.67,21.67,0,0,0,4.46-3.25v-9a57.1,57.1,0,0,0-6.9,1.27,18.08,18.08,0,0,0-4.52,1.74,6.46,6.46,0,0,0-2.45,2.31A5.69,5.69,0,0,0,843.66,167.16Z"/><path d="M871.73,159.79a19.46,19.46,0,0,1,1.27-7.27,16.37,16.37,0,0,1,3.42-5.39,14.25,14.25,0,0,1,5-3.35,16,16,0,0,1,6-1.14,12.1,12.1,0,0,1,5.53,1.17,17.67,17.67,0,0,1,4,2.71l-2.75,3.55a15.41,15.41,0,0,0-3-2.08,7.62,7.62,0,0,0-3.52-.8,9.28,9.28,0,0,0-4.09.9,9.19,9.19,0,0,0-3.21,2.58,12.77,12.77,0,0,0-2.11,4,16.14,16.14,0,0,0-.77,5.13,16.46,16.46,0,0,0,.74,5.09,12.28,12.28,0,0,0,2,3.92,9,9,0,0,0,3.18,2.55,9.74,9.74,0,0,0,8.34-.07,15.28,15.28,0,0,0,3.38-2.31l2.48,3.62a17.89,17.89,0,0,1-4.92,3.08A14.5,14.5,0,0,1,887,176.8a15.92,15.92,0,0,1-6-1.14,13.52,13.52,0,0,1-4.86-3.32,15.57,15.57,0,0,1-3.22-5.36A20.74,20.74,0,0,1,871.73,159.79Z"/><path d="M905.64,147.93h-4.82v-4.15l5.09-.33.67-9.11h4.62v9.11H920v4.49H911.2V166a8.29,8.29,0,0,0,1.11,4.66q1.1,1.64,3.92,1.64a7.31,7.31,0,0,0,1.88-.27,14.05,14.05,0,0,0,1.81-.6L921,175.6a28.53,28.53,0,0,1-2.91.84,13.68,13.68,0,0,1-3.12.37,10.62,10.62,0,0,1-4.39-.8,7.54,7.54,0,0,1-2.88-2.21,8.59,8.59,0,0,1-1.58-3.42,19.42,19.42,0,0,1-.47-4.42Z"/><path d="M939.27,167.56a9,9,0,0,1,4.79-8.21q4.79-2.85,15.24-4a15,15,0,0,0-.3-3,7.19,7.19,0,0,0-1.07-2.61,5.82,5.82,0,0,0-2-1.84,6.76,6.76,0,0,0-3.28-.7,13.13,13.13,0,0,0-5.33,1.07,26.36,26.36,0,0,0-4.39,2.41l-2.21-3.82a35.55,35.55,0,0,1,5.56-2.85,18.58,18.58,0,0,1,7.24-1.37q6,0,8.64,3.65T964.8,156v20h-4.56l-.47-3.89h-.13a27,27,0,0,1-5.06,3.32,12.52,12.52,0,0,1-5.73,1.37,10,10,0,0,1-6.87-2.41A8.66,8.66,0,0,1,939.27,167.56Zm5.43-.4a4.65,4.65,0,0,0,1.64,4,6.65,6.65,0,0,0,4.05,1.21,9.47,9.47,0,0,0,4.46-1.11A21.64,21.64,0,0,0,959.3,168v-9a57.13,57.13,0,0,0-6.9,1.27,18.09,18.09,0,0,0-4.52,1.74,6.46,6.46,0,0,0-2.45,2.31A5.7,5.7,0,0,0,944.7,167.16Z"/><path d="M980.67,178.75v11h-5.49v-46.3h4.56l.47,3.75h.2a24.87,24.87,0,0,1,4.86-3.22,12.09,12.09,0,0,1,5.53-1.34,12.58,12.58,0,0,1,5.56,1.17,10.81,10.81,0,0,1,4,3.35,15.76,15.76,0,0,1,2.45,5.23,26,26,0,0,1,.84,6.87,22.32,22.32,0,0,1-1.14,7.4,17.18,17.18,0,0,1-3.08,5.53,13,13,0,0,1-4.49,3.45,12.69,12.69,0,0,1-5.36,1.17,11,11,0,0,1-4.52-1,22.83,22.83,0,0,1-4.52-2.75Zm0-10a14.61,14.61,0,0,0,4.29,2.65,10.75,10.75,0,0,0,3.68.77,7.82,7.82,0,0,0,3.72-.9,8.89,8.89,0,0,0,2.95-2.55,12.43,12.43,0,0,0,1.94-4.05,19.34,19.34,0,0,0,.7-5.43,23.69,23.69,0,0,0-.47-4.89,11,11,0,0,0-1.51-3.79,7.24,7.24,0,0,0-2.68-2.45,8.27,8.27,0,0,0-3.92-.87,8.75,8.75,0,0,0-4.19,1.14,24.57,24.57,0,0,0-4.52,3.28Z"/><path d="M1017.86,178.75v11h-5.49v-46.3h4.56l.47,3.75h.2a24.78,24.78,0,0,1,4.86-3.22,12.09,12.09,0,0,1,5.53-1.34,12.57,12.57,0,0,1,5.56,1.17,10.81,10.81,0,0,1,4,3.35,15.72,15.72,0,0,1,2.45,5.23,25.93,25.93,0,0,1,.84,6.87,22.32,22.32,0,0,1-1.14,7.4,17.16,17.16,0,0,1-3.08,5.53,13,13,0,0,1-4.49,3.45,12.69,12.69,0,0,1-5.36,1.17,11,11,0,0,1-4.52-1,22.81,22.81,0,0,1-4.52-2.75Zm0-10a14.59,14.59,0,0,0,4.29,2.65,10.76,10.76,0,0,0,3.69.77,7.82,7.82,0,0,0,3.72-.9,8.87,8.87,0,0,0,2.95-2.55,12.44,12.44,0,0,0,1.94-4.05,19.38,19.38,0,0,0,.7-5.43,23.62,23.62,0,0,0-.47-4.89,10.93,10.93,0,0,0-1.51-3.79,7.24,7.24,0,0,0-2.68-2.45,8.27,8.27,0,0,0-3.92-.87,8.75,8.75,0,0,0-4.19,1.14,24.5,24.5,0,0,0-4.52,3.28Z"/></g><g class="cls-4"><line class="cls-5" x1="521.5" y1="234" x2="521.5" y2="841"/><line class="cls-5" x1="904.5" y1="234" x2="904.5" y2="841"/><line class="cls-5" x1="1287.5" y1="234" x2="1287.5" y2="841"/><line class="cls-5" x1="1670.5" y1="234" x2="1670.5" y2="841"/><line class="cls-6" x1="138.5" y1="841.5" x2="138.5" y2="234.5"/></g><g class="cls-7"><path d="M137.65,890.38a5,5,0,0,1-4.53-2.77q-1.58-2.77-1.58-7.92t1.58-7.82a5.14,5.14,0,0,1,9.06,0q1.58,2.7,1.58,7.82t-1.58,7.92A5,5,0,0,1,137.65,890.38Zm0-1.22a3.81,3.81,0,0,0,3.41-2.38,15.59,15.59,0,0,0,1.26-7.09q0-4.71-1.26-7a3.66,3.66,0,0,0-6.8,0q-1.28,2.3-1.28,7a15.41,15.41,0,0,0,1.28,7.09A3.82,3.82,0,0,0,137.65,889.17Z"/></g><g class="cls-8"><path d="M508.69,888.75h4.8v-17h-3.65v-1a16.52,16.52,0,0,0,2.22-.54,9.47,9.47,0,0,0,1.71-.74h1.15v19.2h4.45V890H508.69Z"/><path d="M529,890.38a5,5,0,0,1-4.53-2.77q-1.58-2.77-1.58-7.92t1.58-7.82a5.14,5.14,0,0,1,9.06,0q1.58,2.7,1.58,7.82t-1.58,7.92A5,5,0,0,1,529,890.38Zm0-1.22a3.81,3.81,0,0,0,3.41-2.38,15.59,15.59,0,0,0,1.26-7.09q0-4.71-1.26-7a3.66,3.66,0,0,0-6.8,0q-1.28,2.3-1.28,7a15.41,15.41,0,0,0,1.28,7.09A3.82,3.82,0,0,0,529,889.17Z"/></g><g class="cls-9"><path d="M890.31,889.1q2.53-2.56,4.42-4.59a47.79,47.79,0,0,0,3.15-3.71,15.91,15.91,0,0,0,1.89-3.1,6.88,6.88,0,0,0,.63-2.77,4.94,4.94,0,0,0-1.07-3.23,4.11,4.11,0,0,0-3.38-1.31,4.82,4.82,0,0,0-2.62.77,8.7,8.7,0,0,0-2.14,1.92l-.93-.9a11.76,11.76,0,0,1,2.54-2.14,6.09,6.09,0,0,1,3.28-.86,5.62,5.62,0,0,1,4.26,1.57,5.76,5.76,0,0,1,1.5,4.16,7.51,7.51,0,0,1-.67,3.06,17.84,17.84,0,0,1-1.89,3.2,40.83,40.83,0,0,1-3,3.58q-1.75,1.9-3.86,4.14l1.71-.11q.88,0,1.71,0h7V890H890.31Z"/><path d="M912,890.38a5,5,0,0,1-4.53-2.77q-1.58-2.77-1.58-7.92t1.58-7.82a5.14,5.14,0,0,1,9.06,0q1.58,2.7,1.58,7.82t-1.58,7.92A5,5,0,0,1,912,890.38Zm0-1.22a3.81,3.81,0,0,0,3.41-2.38,15.58,15.58,0,0,0,1.26-7.09q0-4.71-1.26-7a3.66,3.66,0,0,0-6.8,0q-1.28,2.3-1.28,7a15.41,15.41,0,0,0,1.28,7.09A3.82,3.82,0,0,0,912,889.17Z"/></g><g class="cls-10"><path d="M1273.76,886.51a9.49,9.49,0,0,0,1,1,6.87,6.87,0,0,0,1.23.83,7.09,7.09,0,0,0,1.54.59,7.47,7.47,0,0,0,1.9.22,5.54,5.54,0,0,0,1.9-.32,4.46,4.46,0,0,0,1.52-.91,4.07,4.07,0,0,0,1-1.42,4.73,4.73,0,0,0,.35-1.86,4.52,4.52,0,0,0-.4-1.92,3.8,3.8,0,0,0-1.26-1.49,6.59,6.59,0,0,0-2.21-1,13.07,13.07,0,0,0-3.26-.35v-1.25a11,11,0,0,0,3-.35,5.72,5.72,0,0,0,2-.94,3.45,3.45,0,0,0,1.09-1.41,4.54,4.54,0,0,0,.34-1.74,3.6,3.6,0,0,0-1.12-2.77,4.25,4.25,0,0,0-3-1,5.32,5.32,0,0,0-2.62.66,8.78,8.78,0,0,0-2.08,1.58l-.83-1a11,11,0,0,1,2.4-1.76,6.42,6.42,0,0,1,3.14-.74,7.05,7.05,0,0,1,2.21.34,5.37,5.37,0,0,1,1.78,1,4.45,4.45,0,0,1,1.18,1.54,4.84,4.84,0,0,1,.43,2.1,4.68,4.68,0,0,1-1.1,3.25,6.49,6.49,0,0,1-2.8,1.81v.13a6.16,6.16,0,0,1,3.26,1.79,5,5,0,0,1,1.38,3.52,5.84,5.84,0,0,1-.48,2.42,5.3,5.3,0,0,1-1.33,1.82,5.9,5.9,0,0,1-2,1.15,7.32,7.32,0,0,1-2.45.4,8.83,8.83,0,0,1-2.21-.26,8.13,8.13,0,0,1-1.78-.67,8.5,8.5,0,0,1-1.41-.93,11.62,11.62,0,0,1-1.1-1Z"/><path d="M1295,890.38a5,5,0,0,1-4.53-2.77q-1.58-2.77-1.58-7.92t1.58-7.82a5.14,5.14,0,0,1,9.06,0q1.58,2.7,1.58,7.82t-1.58,7.92A5,5,0,0,1,1295,890.38Zm0-1.22a3.81,3.81,0,0,0,3.41-2.38,15.58,15.58,0,0,0,1.26-7.09q0-4.71-1.26-7a3.66,3.66,0,0,0-6.8,0q-1.28,2.3-1.28,7a15.41,15.41,0,0,0,1.28,7.09A3.82,3.82,0,0,0,1295,889.17Z"/></g><g class="cls-11"><path d="M1669.34,883.89h-3V890h-1.38v-6.11h-9.41v-.83l9.5-13.5h1.28v13.12h3Zm-4.42-1.22v-7.49q0-.7,0-1.76t.1-1.76h-.13q-.38.64-.8,1.25t-.86,1.31l-6,8.45Z"/><path d="M1678,890.38a5,5,0,0,1-4.53-2.77q-1.58-2.77-1.58-7.92t1.58-7.82a5.14,5.14,0,0,1,9.06,0q1.58,2.7,1.58,7.82t-1.58,7.92A5,5,0,0,1,1678,890.38Zm0-1.22a3.81,3.81,0,0,0,3.41-2.38,15.58,15.58,0,0,0,1.26-7.09q0-4.71-1.26-7a3.66,3.66,0,0,0-6.8,0q-1.28,2.3-1.28,7a15.41,15.41,0,0,0,1.28,7.09A3.82,3.82,0,0,0,1678,889.17Z"/></g><g class="cls-12"><rect class="cls-13" x="139" y="686" width="328" height="128"/></g><rect class="cls-14" x="139" y="544" width="1298" height="129"/><g class="cls-12"><rect class="cls-15" x="139" y="403" width="673" height="128"/></g><rect class="cls-16" x="139" y="261" width="551" height="129"/><g class="cls-17"><g class="cls-18"><g class="cls-19"><path class="cls-2" d="M372.26,732.79a12.1,12.1,0,0,1,7.74,2.27,7.57,7.57,0,0,1,2.86,6.27,7.81,7.81,0,0,1-1.64,4.81,14.44,14.44,0,0,1-5.22,4,17.57,17.57,0,0,1,6.18,4.36,8.21,8.21,0,0,1,1.83,5.29,8.86,8.86,0,0,1-3.1,7.09q-3.1,2.65-8.5,2.65-5.71,0-8.79-2.5a8.62,8.62,0,0,1-3.08-7.09q0-6.13,7.47-9.55a13.79,13.79,0,0,1-4.83-4.11,8.75,8.75,0,0,1-1.46-4.94,7.53,7.53,0,0,1,2.87-6.19A11.89,11.89,0,0,1,372.26,732.79ZM364.54,760a5.52,5.52,0,0,0,2,4.57,8.93,8.93,0,0,0,5.73,1.64,8.53,8.53,0,0,0,5.66-1.71,5.8,5.8,0,0,0,2-4.69,5.72,5.72,0,0,0-1.9-4.21,19.45,19.45,0,0,0-6.64-3.58,14.45,14.45,0,0,0-5.27,3.46A6.69,6.69,0,0,0,364.54,760Zm7.67-23.9a7.19,7.19,0,0,0-4.79,1.46,4.86,4.86,0,0,0-1.73,3.91,5.59,5.59,0,0,0,1.44,3.86,15,15,0,0,0,5.32,3.22,13.34,13.34,0,0,0,4.94-3.15,5.83,5.83,0,0,0,1.45-3.93,4.8,4.8,0,0,0-1.77-3.92A7.46,7.46,0,0,0,372.21,736.09Z"/><path class="cls-2" d="M390.3,766.41a3.64,3.64,0,0,1,.74-2.48,2.7,2.7,0,0,1,2.14-.84,2.89,2.89,0,0,1,2.21.84,3.49,3.49,0,0,1,.79,2.48,3.42,3.42,0,0,1-.81,2.44,3.2,3.2,0,0,1-4.26.09A3.34,3.34,0,0,1,390.3,766.41Z"/><path class="cls-2" d="M402.75,753.74q0-10.52,4.09-15.74t12.1-5.21a16.15,16.15,0,0,1,4.35.46v3.49a13.92,13.92,0,0,0-4.3-.61q-5.74,0-8.76,3.58T406.9,751h.29q2.69-4.2,8.5-4.2a10,10,0,0,1,7.58,2.91,11,11,0,0,1,2.77,7.89q0,5.57-3,8.75a10.82,10.82,0,0,1-8.22,3.19,10.56,10.56,0,0,1-8.79-4.16Q402.75,761.16,402.75,753.74Zm12,12.3a6.78,6.78,0,0,0,5.38-2.18q1.92-2.19,1.92-6.31a8.14,8.14,0,0,0-1.78-5.57,6.72,6.72,0,0,0-5.32-2,9,9,0,0,0-4,.9,7.46,7.46,0,0,0-2.92,2.49,5.76,5.76,0,0,0-1.09,3.3,11.29,11.29,0,0,0,1,4.69,8.25,8.25,0,0,0,2.77,3.44A6.9,6.9,0,0,0,414.74,766Z"/><path class="cls-2" d="M463,761.7a6.7,6.7,0,0,1-2.78,5.76q-2.78,2-7.81,2-5.32,0-8.3-1.68V764a20,20,0,0,0,4.14,1.54,17.25,17.25,0,0,0,4.26.56,9.67,9.67,0,0,0,4.88-1,3.49,3.49,0,0,0,.35-5.76,21.32,21.32,0,0,0-5.29-2.62,28.61,28.61,0,0,1-5.31-2.43,7.25,7.25,0,0,1-2.34-2.36,6.14,6.14,0,0,1-.77-3.15,6,6,0,0,1,2.66-5.16,12.4,12.4,0,0,1,7.3-1.89,21.36,21.36,0,0,1,8.45,1.76l-1.44,3.3a19.4,19.4,0,0,0-7.3-1.66,8.4,8.4,0,0,0-4.35.9,2.79,2.79,0,0,0-1.46,2.49,3,3,0,0,0,.55,1.83,5.41,5.41,0,0,0,1.77,1.44,39.39,39.39,0,0,0,4.69,2q4.76,1.73,6.43,3.49A6.16,6.16,0,0,1,463,761.7Z"/></g></g></g><g class="cls-17"><g class="cls-20"><g class="cls-21"><path class="cls-2" d="M1319.4,619.4a16.21,16.21,0,0,0,3.38,2.65,9.16,9.16,0,0,0,4.77,1.15,7.07,7.07,0,0,0,4.75-1.58,5.32,5.32,0,0,0,1.85-4.28,6.25,6.25,0,0,0-.53-2.57,5,5,0,0,0-1.72-2,8.89,8.89,0,0,0-3.15-1.3,21.75,21.75,0,0,0-4.8-.45v-3.15a17.24,17.24,0,0,0,4.27-.45,8.1,8.1,0,0,0,2.8-1.25,4.48,4.48,0,0,0,1.52-1.9,6.15,6.15,0,0,0,.45-2.35,4.77,4.77,0,0,0-1.47-3.7,5.74,5.74,0,0,0-4-1.35,7.64,7.64,0,0,0-3.67.9,13.35,13.35,0,0,0-3.12,2.35l-2.2-2.6a17.2,17.2,0,0,1,4.08-2.87,11.09,11.09,0,0,1,5.08-1.12,12.81,12.81,0,0,1,3.85.55,9.19,9.19,0,0,1,3,1.58,7,7,0,0,1,2,2.53,8.07,8.07,0,0,1,.7,3.45,7,7,0,0,1-1.6,4.75,10.33,10.33,0,0,1-4.2,2.85v.2a11.17,11.17,0,0,1,2.7,1,8.49,8.49,0,0,1,2.2,1.7,7.42,7.42,0,0,1,1.48,2.38,8.23,8.23,0,0,1,.52,3,8.58,8.58,0,0,1-.83,3.8,8.45,8.45,0,0,1-2.25,2.88,10.13,10.13,0,0,1-3.32,1.8,13,13,0,0,1-4.1.63,15,15,0,0,1-3.47-.37,14.13,14.13,0,0,1-2.87-1,12.6,12.6,0,0,1-2.33-1.42,13.62,13.62,0,0,1-1.83-1.7Z"/><path class="cls-2" d="M1344.25,619.4a16.21,16.21,0,0,0,3.38,2.65,9.16,9.16,0,0,0,4.77,1.15,7.07,7.07,0,0,0,4.75-1.58,5.32,5.32,0,0,0,1.85-4.28,6.25,6.25,0,0,0-.53-2.57,5,5,0,0,0-1.72-2,8.89,8.89,0,0,0-3.15-1.3,21.75,21.75,0,0,0-4.8-.45v-3.15a17.24,17.24,0,0,0,4.27-.45,8.1,8.1,0,0,0,2.8-1.25,4.48,4.48,0,0,0,1.52-1.9,6.15,6.15,0,0,0,.45-2.35,4.77,4.77,0,0,0-1.47-3.7,5.74,5.74,0,0,0-4-1.35,7.64,7.64,0,0,0-3.67.9,13.35,13.35,0,0,0-3.12,2.35l-2.2-2.6a17.2,17.2,0,0,1,4.08-2.87,11.09,11.09,0,0,1,5.08-1.12,12.81,12.81,0,0,1,3.85.55,9.19,9.19,0,0,1,3,1.58,7,7,0,0,1,2,2.53,8.07,8.07,0,0,1,.7,3.45,7,7,0,0,1-1.6,4.75,10.33,10.33,0,0,1-4.2,2.85v.2a11.17,11.17,0,0,1,2.7,1,8.49,8.49,0,0,1,2.2,1.7,7.42,7.42,0,0,1,1.48,2.38,8.23,8.23,0,0,1,.52,3,8.58,8.58,0,0,1-.83,3.8,8.45,8.45,0,0,1-2.25,2.88,10.13,10.13,0,0,1-3.32,1.8,13,13,0,0,1-4.1.63,15,15,0,0,1-3.47-.37,14.13,14.13,0,0,1-2.87-1,12.6,12.6,0,0,1-2.33-1.42,13.62,13.62,0,0,1-1.83-1.7Z"/><path class="cls-2" d="M1368.95,623.5a3.14,3.14,0,0,1,.88-2.33,2.89,2.89,0,0,1,2.13-.87,2.84,2.84,0,0,1,2.08.88,3.15,3.15,0,0,1,.88,2.33,3,3,0,0,1-.87,2.22,2.84,2.84,0,0,1-2.08.88,2.89,2.89,0,0,1-2.12-.87A3,3,0,0,1,1368.95,623.5Z"/><path class="cls-2" d="M1383,620.65a7.82,7.82,0,0,0,2.38,1.85,6.26,6.26,0,0,0,2.88.7,7.48,7.48,0,0,0,3.2-.7,6.81,6.81,0,0,0,2.65-2.33,13.28,13.28,0,0,0,1.85-4.22,26.56,26.56,0,0,0,.75-6.45,11.49,11.49,0,0,1-3.5,3,8.24,8.24,0,0,1-4,1.1,8.92,8.92,0,0,1-6.6-2.45q-2.45-2.45-2.45-7.4a11.15,11.15,0,0,1,.75-4.17,10.12,10.12,0,0,1,2-3.23,9.12,9.12,0,0,1,6.63-2.85,10.18,10.18,0,0,1,4.38,1,9.45,9.45,0,0,1,3.5,2.88,14.33,14.33,0,0,1,2.3,4.8,24.55,24.55,0,0,1,.82,6.72,29.09,29.09,0,0,1-1,8.18,16,16,0,0,1-2.7,5.5,10.46,10.46,0,0,1-3.87,3.1,11.06,11.06,0,0,1-4.58,1,10,10,0,0,1-4.47-.95,10.51,10.51,0,0,1-3.22-2.4Zm6.9-10.15a7,7,0,0,0,3.33-1,10.41,10.41,0,0,0,3.38-3.28q-.4-4.7-2.2-7.1a5.75,5.75,0,0,0-4.85-2.4,4.9,4.9,0,0,0-2.17.5,5.21,5.21,0,0,0-1.77,1.42,6.9,6.9,0,0,0-1.18,2.23,9.13,9.13,0,0,0-.42,2.85,7.68,7.68,0,0,0,1.45,5A5.37,5.37,0,0,0,1389.9,610.5Z"/><path class="cls-2" d="M1416.55,620.5a16.35,16.35,0,0,0,3.28,2.1,8.87,8.87,0,0,0,3.88.8,5.17,5.17,0,0,0,3.6-1.1,3.52,3.52,0,0,0,1.2-2.7,2.76,2.76,0,0,0-.5-1.65,5,5,0,0,0-1.27-1.23,9.43,9.43,0,0,0-1.77-.92l-2-.8q-1.3-.45-2.6-1a10.37,10.37,0,0,1-2.33-1.4,7.06,7.06,0,0,1-1.67-1.92,5.12,5.12,0,0,1-.65-2.65,6.56,6.56,0,0,1,.57-2.72,6.27,6.27,0,0,1,1.65-2.2,7.82,7.82,0,0,1,2.63-1.45,11.71,11.71,0,0,1,7.72.28,13.18,13.18,0,0,1,3.33,1.95l-2,2.6a13.06,13.06,0,0,0-2.6-1.55,7.18,7.18,0,0,0-3-.6,4.68,4.68,0,0,0-3.37,1,3.32,3.32,0,0,0-1.08,2.45,2.35,2.35,0,0,0,.45,1.45,4.78,4.78,0,0,0,1.2,1.1,8.74,8.74,0,0,0,1.72.88l2,.78q1.3.5,2.63,1a10.1,10.1,0,0,1,2.38,1.38,6.76,6.76,0,0,1,1.72,2,5.83,5.83,0,0,1,.68,2.9,6.86,6.86,0,0,1-.58,2.8,6.65,6.65,0,0,1-1.7,2.3,8.11,8.11,0,0,1-2.8,1.58,11.77,11.77,0,0,1-3.82.57,13.09,13.09,0,0,1-5-.95,15.42,15.42,0,0,1-4.1-2.4Z"/></g></g></g><g class="cls-4"><g class="cls-17"><g class="cls-22"><g class="cls-23"><path class="cls-2" d="M696,481.6h7.3V458.1h-5.8v-2.65a24.88,24.88,0,0,0,3.82-1,15.25,15.25,0,0,0,2.93-1.37h3.15v28.5H714V485H696Z"/><path class="cls-2" d="M726.5,476.75a48.82,48.82,0,0,1,1.68-7.12,39.18,39.18,0,0,1,2.75-6.53,58.38,58.38,0,0,1,4-6.45H719V453.1H739.6v2.55a47.4,47.4,0,0,0-4.62,6.9,37.21,37.21,0,0,0-2.83,6.73,42.6,42.6,0,0,0-1.52,7.25q-.48,3.82-.67,8.47H725.7A72.84,72.84,0,0,1,726.5,476.75Z"/><path class="cls-2" d="M744.95,482.5a3.14,3.14,0,0,1,.88-2.33,2.89,2.89,0,0,1,2.13-.87,2.84,2.84,0,0,1,2.08.88,3.15,3.15,0,0,1,.88,2.33,3,3,0,0,1-.87,2.22,2.84,2.84,0,0,1-2.08.88,2.89,2.89,0,0,1-2.12-.87A3,3,0,0,1,744.95,482.5Z"/><path class="cls-2" d="M774.1,458.45a7.51,7.51,0,0,0-2.37-1.83,6.44,6.44,0,0,0-2.87-.67,7.36,7.36,0,0,0-3.15.7A6.87,6.87,0,0,0,763,459a13,13,0,0,0-1.85,4.17,26,26,0,0,0-.75,6.38,11.49,11.49,0,0,1,3.5-2.92,8.3,8.3,0,0,1,4-1.08,9,9,0,0,1,6.63,2.45q2.47,2.45,2.48,7.4a11.15,11.15,0,0,1-.75,4.18,9.88,9.88,0,0,1-2.05,3.22,9.39,9.39,0,0,1-3,2.1,8.94,8.94,0,0,1-3.65.75,10,10,0,0,1-4.35-.95,9.48,9.48,0,0,1-3.47-2.87,14.62,14.62,0,0,1-2.33-4.8,23.78,23.78,0,0,1-.85-6.72,29.05,29.05,0,0,1,1-8.17,16,16,0,0,1,2.7-5.5,10.44,10.44,0,0,1,3.88-3.1,11.07,11.07,0,0,1,4.57-1,9.59,9.59,0,0,1,4.48,1,11.8,11.8,0,0,1,3.23,2.43Zm-6.55,23.9a4.84,4.84,0,0,0,2.2-.5,5.26,5.26,0,0,0,1.75-1.42,6.93,6.93,0,0,0,1.17-2.2,9.08,9.08,0,0,0,.43-2.87,7.68,7.68,0,0,0-1.45-4.95,5.37,5.37,0,0,0-4.45-1.8,6.88,6.88,0,0,0-3.27,1,10.5,10.5,0,0,0-3.37,3.22,14.07,14.07,0,0,0,2.18,7.13A5.66,5.66,0,0,0,767.55,482.35Z"/><path class="cls-2" d="M792.55,479.5a16.35,16.35,0,0,0,3.27,2.1,8.88,8.88,0,0,0,3.88.8,5.17,5.17,0,0,0,3.6-1.1,3.52,3.52,0,0,0,1.2-2.7A2.77,2.77,0,0,0,804,477a5,5,0,0,0-1.27-1.23,9.43,9.43,0,0,0-1.77-.92l-2-.8q-1.3-.45-2.6-1a10.36,10.36,0,0,1-2.33-1.4,7.06,7.06,0,0,1-1.67-1.92,5.12,5.12,0,0,1-.65-2.65,6.55,6.55,0,0,1,.57-2.72,6.26,6.26,0,0,1,1.65-2.2,7.81,7.81,0,0,1,2.63-1.45,11.71,11.71,0,0,1,7.72.28,13.18,13.18,0,0,1,3.33,1.95l-2,2.6a13.06,13.06,0,0,0-2.6-1.55,7.18,7.18,0,0,0-3-.6,4.68,4.68,0,0,0-3.37,1,3.32,3.32,0,0,0-1.08,2.45,2.35,2.35,0,0,0,.45,1.45,4.78,4.78,0,0,0,1.2,1.1,8.75,8.75,0,0,0,1.72.88l2,.78q1.3.5,2.63,1a10.1,10.1,0,0,1,2.38,1.38,6.76,6.76,0,0,1,1.72,2,5.83,5.83,0,0,1,.68,2.9,6.86,6.86,0,0,1-.58,2.8,6.66,6.66,0,0,1-1.7,2.3,8.12,8.12,0,0,1-2.8,1.58,11.77,11.77,0,0,1-3.82.57,13.09,13.09,0,0,1-5-.95,15.41,15.41,0,0,1-4.1-2.4Z"/></g></g></g></g><g class="cls-17"><g class="cls-24"><g class="cls-25"><path class="cls-2" d="M573,339.6h7.3V316.1h-5.8v-2.65a24.88,24.88,0,0,0,3.82-1,15.25,15.25,0,0,0,2.93-1.37h3.15v28.5H591V343H573Z"/><path class="cls-2" d="M617.3,334.2h-4.35V343H609v-8.8H594.7v-2.7l13.65-20.4h4.6v19.8h4.35ZM609,330.9v-9.25q0-1.3.07-3.08t.18-3.08h-.2q-.6,1.15-1.25,2.25T606.5,320L599,330.9Z"/><path class="cls-2" d="M621.95,340.5a3.14,3.14,0,0,1,.88-2.33,2.89,2.89,0,0,1,2.13-.87,2.84,2.84,0,0,1,2.08.88,3.15,3.15,0,0,1,.88,2.33,3,3,0,0,1-.87,2.22,2.84,2.84,0,0,1-2.08.88,2.89,2.89,0,0,1-2.12-.87A3,3,0,0,1,621.95,340.5Z"/><path class="cls-2" d="M654.6,334.2h-4.35V343h-3.9v-8.8H632v-2.7l13.65-20.4h4.6v19.8h4.35Zm-8.25-3.3v-9.25q0-1.3.07-3.08t.18-3.08h-.2q-.6,1.15-1.25,2.25T643.8,320l-7.45,10.9Z"/><path class="cls-2" d="M669.55,337.5a16.35,16.35,0,0,0,3.27,2.1,8.88,8.88,0,0,0,3.88.8,5.17,5.17,0,0,0,3.6-1.1,3.52,3.52,0,0,0,1.2-2.7A2.77,2.77,0,0,0,681,335a5,5,0,0,0-1.27-1.23,9.43,9.43,0,0,0-1.77-.92l-2-.8q-1.3-.45-2.6-1a10.36,10.36,0,0,1-2.33-1.4,7.06,7.06,0,0,1-1.67-1.92,5.12,5.12,0,0,1-.65-2.65,6.55,6.55,0,0,1,.57-2.72,6.26,6.26,0,0,1,1.65-2.2,7.81,7.81,0,0,1,2.63-1.45,11.71,11.71,0,0,1,7.72.28,13.18,13.18,0,0,1,3.33,1.95l-2,2.6a13.06,13.06,0,0,0-2.6-1.55,7.18,7.18,0,0,0-3-.6,4.68,4.68,0,0,0-3.37,1,3.32,3.32,0,0,0-1.08,2.45,2.35,2.35,0,0,0,.45,1.45,4.78,4.78,0,0,0,1.2,1.1,8.75,8.75,0,0,0,1.72.88l2,.78q1.3.5,2.63,1a10.1,10.1,0,0,1,2.38,1.38,6.76,6.76,0,0,1,1.72,2,5.83,5.83,0,0,1,.68,2.9,6.86,6.86,0,0,1-.58,2.8,6.66,6.66,0,0,1-1.7,2.3,8.12,8.12,0,0,1-2.8,1.58,11.77,11.77,0,0,1-3.82.57,13.09,13.09,0,0,1-5-.95,15.41,15.41,0,0,1-4.1-2.4Z"/></g></g></g><rect class="cls-16" x="1483" y="231" width="37" height="37"/><path d="M1541.12,244.53h2.58l.27,2.66h.11a15.06,15.06,0,0,1,2.79-2.22,6.4,6.4,0,0,1,3.4-.89,5,5,0,0,1,4.28,1.82,9,9,0,0,1,1.35,5.4V263h-3.12V251.71a6.6,6.6,0,0,0-.84-3.78,3.05,3.05,0,0,0-2.66-1.16,4.54,4.54,0,0,0-2.55.72,16.5,16.5,0,0,0-2.51,2.13V263h-3.12Z"/><path d="M1565,264.56v6.23h-3.12V244.53h2.58l.27,2.13h.11a14.06,14.06,0,0,1,2.75-1.82,6.85,6.85,0,0,1,3.13-.76,7.13,7.13,0,0,1,3.15.67,6.13,6.13,0,0,1,2.28,1.9,8.9,8.9,0,0,1,1.39,3,14.71,14.71,0,0,1,.48,3.89,12.68,12.68,0,0,1-.65,4.2,9.76,9.76,0,0,1-1.75,3.13,7.41,7.41,0,0,1-2.55,2,7.19,7.19,0,0,1-3,.67,6.22,6.22,0,0,1-2.56-.57,12.94,12.94,0,0,1-2.57-1.56Zm0-5.66a8.29,8.29,0,0,0,2.43,1.5,6.11,6.11,0,0,0,2.09.44,4.43,4.43,0,0,0,2.11-.51,5.05,5.05,0,0,0,1.67-1.44,7.08,7.08,0,0,0,1.1-2.3,11,11,0,0,0,.4-3.08,13.51,13.51,0,0,0-.27-2.77,6.21,6.21,0,0,0-.86-2.15,4.1,4.1,0,0,0-1.52-1.39,4.69,4.69,0,0,0-2.22-.49,5,5,0,0,0-2.37.65,14,14,0,0,0-2.57,1.86Z"/><path d="M1583,244.53h2.58l.27,2.66h.11a12.77,12.77,0,0,1,2.64-2.22,5.73,5.73,0,0,1,3.1-.89,5.3,5.3,0,0,1,3.33.93,5.4,5.4,0,0,1,1.77,2.6,15.59,15.59,0,0,1,2.91-2.57,5.64,5.64,0,0,1,3.17-1,5,5,0,0,1,4.24,1.82,8.83,8.83,0,0,1,1.39,5.4V263h-3.12V251.71a6.61,6.61,0,0,0-.84-3.78,3,3,0,0,0-2.58-1.16q-2.09,0-4.64,2.85V263h-3.12V251.71a6.61,6.61,0,0,0-.84-3.78,3,3,0,0,0-2.62-1.16q-2.09,0-4.64,2.85V263H1583Z"/><path d="M1623.77,240.73a2.2,2.2,0,0,1-1.54-.57,2,2,0,0,1,0-2.91,2.43,2.43,0,0,1,3.08,0,2,2,0,0,1,0,2.91A2.21,2.21,0,0,1,1623.77,240.73Zm-1.6,3.8h3.12V263h-3.12Z"/><rect class="cls-15" x="1483" y="278" width="37" height="37"/><path d="M1545.37,300.35l-7.52-15.28h3.42l3.19,7,1.2,2.7q.59,1.33,1.24,2.74h.15q.65-1.41,1.27-2.74t1.2-2.7l3.23-7H1556l-7.49,15.28V310h-3.15Z"/><path d="M1555.56,305.21a5.12,5.12,0,0,1,2.72-4.66q2.72-1.61,8.65-2.26a8.5,8.5,0,0,0-.17-1.71,4.08,4.08,0,0,0-.61-1.48,3.31,3.31,0,0,0-1.16-1,3.83,3.83,0,0,0-1.86-.4,7.45,7.45,0,0,0-3,.61,15,15,0,0,0-2.49,1.37l-1.25-2.17a20.21,20.21,0,0,1,3.15-1.61,10.52,10.52,0,0,1,4.1-.78q3.38,0,4.9,2.07a9.14,9.14,0,0,1,1.52,5.53V310h-2.58l-.27-2.2h-.08a15.26,15.26,0,0,1-2.87,1.88,7.1,7.1,0,0,1-3.25.78,5.64,5.64,0,0,1-3.9-1.37A4.91,4.91,0,0,1,1555.56,305.21Zm3.08-.23a2.64,2.64,0,0,0,.93,2.28,3.78,3.78,0,0,0,2.3.68,5.37,5.37,0,0,0,2.53-.63,12.3,12.3,0,0,0,2.53-1.84v-5.13a32.48,32.48,0,0,0-3.91.72,10.22,10.22,0,0,0-2.57,1,3.67,3.67,0,0,0-1.39,1.31A3.23,3.23,0,0,0,1558.63,305Z"/><path d="M1575.92,291.53h2.58l.27,3.34h.11a8.54,8.54,0,0,1,2.3-2.77,4.76,4.76,0,0,1,2.95-1,4.92,4.92,0,0,1,2,.38l-.61,2.74a7.12,7.12,0,0,0-.84-.23,5,5,0,0,0-1-.08,4.14,4.14,0,0,0-2.45,1,7.56,7.56,0,0,0-2.22,3.31V310h-3.12Z"/><path d="M1589.11,291.53h2.58l.27,2.66h.11a15.09,15.09,0,0,1,2.79-2.22,6.4,6.4,0,0,1,3.4-.89,5,5,0,0,1,4.27,1.82,9,9,0,0,1,1.35,5.4V310h-3.12V298.71a6.6,6.6,0,0,0-.84-3.78,3.06,3.06,0,0,0-2.66-1.16,4.54,4.54,0,0,0-2.55.72,16.59,16.59,0,0,0-2.51,2.13V310h-3.12Z"/><rect class="cls-14" x="1483" y="325" width="37" height="37"/><path d="M1544.23,358.56v6.23h-3.12V338.53h2.58l.27,2.13h.11a14.06,14.06,0,0,1,2.75-1.82,6.85,6.85,0,0,1,3.14-.76,7.13,7.13,0,0,1,3.15.67,6.14,6.14,0,0,1,2.28,1.9,8.92,8.92,0,0,1,1.39,3,14.72,14.72,0,0,1,.47,3.89,12.65,12.65,0,0,1-.65,4.2,9.74,9.74,0,0,1-1.75,3.13,7.4,7.4,0,0,1-2.55,2,7.19,7.19,0,0,1-3,.67,6.23,6.23,0,0,1-2.57-.57,13,13,0,0,1-2.56-1.56Zm0-5.66a8.3,8.3,0,0,0,2.43,1.5,6.12,6.12,0,0,0,2.09.44,4.44,4.44,0,0,0,2.11-.51,5,5,0,0,0,1.67-1.44,7,7,0,0,0,1.1-2.3,11,11,0,0,0,.4-3.08,13.37,13.37,0,0,0-.27-2.77,6.21,6.21,0,0,0-.85-2.15,4.1,4.1,0,0,0-1.52-1.39,4.69,4.69,0,0,0-2.22-.49,5,5,0,0,0-2.37.65,14,14,0,0,0-2.56,1.86Z"/><path d="M1562.21,338.53h2.58l.27,2.66h.11A15.06,15.06,0,0,1,1568,339a6.4,6.4,0,0,1,3.4-.89,5,5,0,0,1,4.28,1.82,9,9,0,0,1,1.35,5.4V357h-3.12V345.71a6.6,6.6,0,0,0-.84-3.78,3.05,3.05,0,0,0-2.66-1.16,4.54,4.54,0,0,0-2.55.72,16.5,16.5,0,0,0-2.51,2.13V357h-3.12Z"/><path d="M1586.11,358.56v6.23H1583V338.53h2.58l.27,2.13h.11a14,14,0,0,1,2.76-1.82,6.85,6.85,0,0,1,3.13-.76,7.13,7.13,0,0,1,3.15.67,6.13,6.13,0,0,1,2.28,1.9,8.9,8.9,0,0,1,1.39,3,14.71,14.71,0,0,1,.48,3.89,12.68,12.68,0,0,1-.65,4.2,9.76,9.76,0,0,1-1.75,3.13,7.41,7.41,0,0,1-2.55,2,7.18,7.18,0,0,1-3,.67,6.23,6.23,0,0,1-2.57-.57,13,13,0,0,1-2.57-1.56Zm0-5.66a8.3,8.3,0,0,0,2.43,1.5,6.12,6.12,0,0,0,2.09.44,4.44,4.44,0,0,0,2.11-.51,5,5,0,0,0,1.67-1.44,7.06,7.06,0,0,0,1.1-2.3,11,11,0,0,0,.4-3.08,13.44,13.44,0,0,0-.27-2.77,6.21,6.21,0,0,0-.85-2.15,4.11,4.11,0,0,0-1.52-1.39,4.69,4.69,0,0,0-2.22-.49,5,5,0,0,0-2.37.65,14,14,0,0,0-2.56,1.86Z"/><path d="M1604.08,338.53h2.58l.27,2.66h.11a12.77,12.77,0,0,1,2.64-2.22,5.73,5.73,0,0,1,3.1-.89,5.3,5.3,0,0,1,3.33.93,5.4,5.4,0,0,1,1.77,2.6,15.59,15.59,0,0,1,2.91-2.57,5.64,5.64,0,0,1,3.17-1,5,5,0,0,1,4.24,1.82,8.83,8.83,0,0,1,1.39,5.4V357h-3.12V345.71a6.61,6.61,0,0,0-.84-3.78,3,3,0,0,0-2.58-1.16q-2.09,0-4.64,2.85V357h-3.12V345.71a6.61,6.61,0,0,0-.84-3.78,3,3,0,0,0-2.62-1.16q-2.09,0-4.64,2.85V357h-3.12Z"/><rect class="cls-13" x="1483" y="372" width="37" height="37"/><path d="M1541.12,385.53h2.58l.27,2.66h.11a15.06,15.06,0,0,1,2.79-2.22,6.4,6.4,0,0,1,3.4-.89,5,5,0,0,1,4.28,1.82,9,9,0,0,1,1.35,5.4V404h-3.12V392.71a6.6,6.6,0,0,0-.84-3.78,3.05,3.05,0,0,0-2.66-1.16,4.54,4.54,0,0,0-2.55.72,16.5,16.5,0,0,0-2.51,2.13V404h-3.12Z"/><path d="M1565,405.56v6.23h-3.12V385.53h2.58l.27,2.13h.11a14.06,14.06,0,0,1,2.75-1.82,6.85,6.85,0,0,1,3.13-.76,7.13,7.13,0,0,1,3.15.67,6.13,6.13,0,0,1,2.28,1.9,8.9,8.9,0,0,1,1.39,3,14.71,14.71,0,0,1,.48,3.89,12.68,12.68,0,0,1-.65,4.2,9.76,9.76,0,0,1-1.75,3.13,7.41,7.41,0,0,1-2.55,2,7.19,7.19,0,0,1-3,.67,6.22,6.22,0,0,1-2.56-.57,12.94,12.94,0,0,1-2.57-1.56Zm0-5.66a8.29,8.29,0,0,0,2.43,1.5,6.11,6.11,0,0,0,2.09.44,4.43,4.43,0,0,0,2.11-.51,5.05,5.05,0,0,0,1.67-1.44,7.08,7.08,0,0,0,1.1-2.3,11,11,0,0,0,.4-3.08,13.51,13.51,0,0,0-.27-2.77,6.21,6.21,0,0,0-.86-2.15,4.1,4.1,0,0,0-1.52-1.39,4.69,4.69,0,0,0-2.22-.49,5,5,0,0,0-2.37.65,14,14,0,0,0-2.57,1.86Z"/><path d="M1583,385.53h2.58l.27,2.66h.11a12.77,12.77,0,0,1,2.64-2.22,5.73,5.73,0,0,1,3.1-.89,5.3,5.3,0,0,1,3.33.93,5.4,5.4,0,0,1,1.77,2.6,15.59,15.59,0,0,1,2.91-2.57,5.64,5.64,0,0,1,3.17-1,5,5,0,0,1,4.24,1.82,8.83,8.83,0,0,1,1.39,5.4V404h-3.12V392.71a6.61,6.61,0,0,0-.84-3.78,3,3,0,0,0-2.58-1.16q-2.09,0-4.64,2.85V404h-3.12V392.71a6.61,6.61,0,0,0-.84-3.78,3,3,0,0,0-2.62-1.16q-2.09,0-4.64,2.85V404H1583Z"/><path d="M1620.8,394.8a11,11,0,0,1,.72-4.12,9.29,9.29,0,0,1,1.94-3.06,8.09,8.09,0,0,1,2.83-1.9,9.09,9.09,0,0,1,3.4-.65,6.86,6.86,0,0,1,3.13.67,10,10,0,0,1,2.26,1.54l-1.56,2a8.79,8.79,0,0,0-1.73-1.18,4.32,4.32,0,0,0-2-.46,5.27,5.27,0,0,0-2.32.51,5.21,5.21,0,0,0-1.82,1.46,7.25,7.25,0,0,0-1.2,2.26,9.13,9.13,0,0,0-.44,2.91,9.34,9.34,0,0,0,.42,2.89,7,7,0,0,0,1.16,2.22,5.11,5.11,0,0,0,1.8,1.44,5.53,5.53,0,0,0,4.73,0,8.67,8.67,0,0,0,1.92-1.31l1.41,2.05a10.12,10.12,0,0,1-2.79,1.75,8.21,8.21,0,0,1-3.21.65,9,9,0,0,1-3.42-.65,7.66,7.66,0,0,1-2.75-1.88,8.82,8.82,0,0,1-1.82-3A11.73,11.73,0,0,1,1620.8,394.8Z"/><path d="M1641.09,381.73a2.2,2.2,0,0,1-1.54-.57,2,2,0,0,1,0-2.91,2.43,2.43,0,0,1,3.08,0,2,2,0,0,1,0,2.91A2.2,2.2,0,0,1,1641.09,381.73Zm-1.6,3.8h3.12V404h-3.12Z"/><path d="M527.88,911.43h-2.16v-1.86l2.28-.15.3-4.08h2.07v4.08h3.93v2h-3.93v8.1a3.72,3.72,0,0,0,.5,2.08,2,2,0,0,0,1.75.73,3.26,3.26,0,0,0,.84-.12,6.34,6.34,0,0,0,.81-.27l.48,1.86a13,13,0,0,1-1.31.38,6.14,6.14,0,0,1-1.4.17,4.75,4.75,0,0,1-2-.36,3.38,3.38,0,0,1-1.29-1,3.85,3.85,0,0,1-.71-1.53,8.72,8.72,0,0,1-.21-2Z"/><path d="M538.86,906.42a1.74,1.74,0,0,1-1.22-.45,1.58,1.58,0,0,1,0-2.29,1.92,1.92,0,0,1,2.43,0,1.58,1.58,0,0,1,0,2.29A1.74,1.74,0,0,1,538.86,906.42Zm-1.26,3h2.46V924H537.6Z"/><path d="M545,909.42h2l.21,2.1h.09a10.12,10.12,0,0,1,2.08-1.75,4.52,4.52,0,0,1,2.45-.71,4.18,4.18,0,0,1,2.63.74,4.27,4.27,0,0,1,1.4,2.05,12.29,12.29,0,0,1,2.29-2,4.45,4.45,0,0,1,2.5-.77A3.94,3.94,0,0,1,564,910.5a7,7,0,0,1,1.09,4.26V924h-2.46v-8.91a5.21,5.21,0,0,0-.66-3,2.35,2.35,0,0,0-2-.92q-1.65,0-3.66,2.25V924h-2.46v-8.91a5.21,5.21,0,0,0-.66-3,2.38,2.38,0,0,0-2.07-.92q-1.65,0-3.66,2.25V924H545Z"/><path d="M568.77,916.74a8.82,8.82,0,0,1,.56-3.23,7.55,7.55,0,0,1,1.47-2.42,6.39,6.39,0,0,1,2.09-1.51,5.88,5.88,0,0,1,2.43-.53,6.12,6.12,0,0,1,2.48.48,4.84,4.84,0,0,1,1.83,1.38,6.34,6.34,0,0,1,1.13,2.16,9.53,9.53,0,0,1,.39,2.82,8.41,8.41,0,0,1-.09,1.35H571.2a5.79,5.79,0,0,0,1.46,3.75,4.47,4.47,0,0,0,3.4,1.38,5.74,5.74,0,0,0,1.94-.31,8.57,8.57,0,0,0,1.69-.83l.87,1.62a12.39,12.39,0,0,1-2.13,1,7.41,7.41,0,0,1-2.67.45,7.14,7.14,0,0,1-2.75-.53,6.5,6.5,0,0,1-2.22-1.5,6.93,6.93,0,0,1-1.48-2.38A8.93,8.93,0,0,1,568.77,916.74Zm10.2-1.11a5.4,5.4,0,0,0-.95-3.43,3.2,3.2,0,0,0-2.65-1.19,3.6,3.6,0,0,0-1.48.32,4.11,4.11,0,0,0-1.27.9,4.8,4.8,0,0,0-.95,1.44,6.67,6.67,0,0,0-.5,2Z"/><path d="M591.21,911.43H589v-1.86l2.28-.15.3-4.08h2.07v4.08h3.93v2H593.7v8.1a3.72,3.72,0,0,0,.5,2.08,2,2,0,0,0,1.75.73,3.26,3.26,0,0,0,.84-.12,6.34,6.34,0,0,0,.81-.27l.48,1.86a13,13,0,0,1-1.31.38,6.14,6.14,0,0,1-1.4.17,4.75,4.75,0,0,1-2-.36,3.38,3.38,0,0,1-1.29-1,3.85,3.85,0,0,1-.71-1.53,8.72,8.72,0,0,1-.21-2Z"/><path d="M599.55,916.74a8.91,8.91,0,0,1,.56-3.25,7.4,7.4,0,0,1,1.48-2.42,6.21,6.21,0,0,1,2.15-1.5,6.7,6.7,0,0,1,5.13,0,6.22,6.22,0,0,1,2.15,1.5,7.42,7.42,0,0,1,1.49,2.42,8.93,8.93,0,0,1,.55,3.25,8.83,8.83,0,0,1-.55,3.22,7.25,7.25,0,0,1-1.49,2.4,6.31,6.31,0,0,1-2.15,1.48,6.7,6.7,0,0,1-5.13,0,6.3,6.3,0,0,1-2.15-1.48,7.22,7.22,0,0,1-1.48-2.4A8.81,8.81,0,0,1,599.55,916.74Zm2.55,0a8.06,8.06,0,0,0,.3,2.28,5.41,5.41,0,0,0,.85,1.76,3.93,3.93,0,0,0,1.33,1.14,3.81,3.81,0,0,0,3.42,0,3.93,3.93,0,0,0,1.33-1.14,5.41,5.41,0,0,0,.85-1.76,8.07,8.07,0,0,0,.3-2.28,8.24,8.24,0,0,0-.3-2.29,5.57,5.57,0,0,0-.85-1.79A3.87,3.87,0,0,0,608,911.5a3.81,3.81,0,0,0-3.42,0,3.87,3.87,0,0,0-1.33,1.16,5.57,5.57,0,0,0-.85,1.79A8.22,8.22,0,0,0,602.1,916.74Z"/><path d="M624.21,906.42A1.74,1.74,0,0,1,623,906a1.58,1.58,0,0,1,0-2.29,1.92,1.92,0,0,1,2.43,0,1.58,1.58,0,0,1,0,2.29A1.74,1.74,0,0,1,624.21,906.42Zm-1.26,3h2.46V924h-2.46Z"/><path d="M630.33,909.42h2l.21,2.1h.09a11.94,11.94,0,0,1,2.21-1.75,5.05,5.05,0,0,1,2.69-.71,3.92,3.92,0,0,1,3.38,1.44,7.12,7.12,0,0,1,1.06,4.26V924h-2.46v-8.91a5.21,5.21,0,0,0-.66-3,2.41,2.41,0,0,0-2.1-.92,3.59,3.59,0,0,0-2,.57,13.07,13.07,0,0,0-2,1.68V924h-2.46Z"/><path d="M646.35,920.7a9.81,9.81,0,0,0,2,1.26,5.33,5.33,0,0,0,2.32.48,3.11,3.11,0,0,0,2.16-.66,2.11,2.11,0,0,0,.72-1.62,1.66,1.66,0,0,0-.3-1,3,3,0,0,0-.77-.74,5.62,5.62,0,0,0-1.06-.55l-1.2-.48q-.78-.27-1.56-.62a6.19,6.19,0,0,1-1.4-.84,4.23,4.23,0,0,1-1-1.16,3.07,3.07,0,0,1-.39-1.59,3.93,3.93,0,0,1,.34-1.63,3.76,3.76,0,0,1,1-1.32,4.68,4.68,0,0,1,1.58-.87,7,7,0,0,1,4.63.17,7.91,7.91,0,0,1,2,1.17l-1.17,1.56a7.91,7.91,0,0,0-1.56-.93,4.31,4.31,0,0,0-1.77-.36,2.81,2.81,0,0,0-2,.63,2,2,0,0,0-.65,1.47,1.41,1.41,0,0,0,.27.87,2.89,2.89,0,0,0,.72.66,5.23,5.23,0,0,0,1,.52l1.21.46,1.58.63a6,6,0,0,1,1.42.82,4.06,4.06,0,0,1,1,1.21,3.5,3.5,0,0,1,.4,1.74,4.12,4.12,0,0,1-.34,1.68,4,4,0,0,1-1,1.38,4.86,4.86,0,0,1-1.68.94,7,7,0,0,1-2.29.35,7.85,7.85,0,0,1-3-.57,9.24,9.24,0,0,1-2.46-1.44Z"/><path d="M659.73,911.43h-2.16v-1.86l2.28-.15.3-4.08h2.07v4.08h3.93v2h-3.93v8.1a3.72,3.72,0,0,0,.5,2.08,2,2,0,0,0,1.75.73,3.26,3.26,0,0,0,.84-.12,6.34,6.34,0,0,0,.81-.27l.48,1.86a13,13,0,0,1-1.31.38,6.14,6.14,0,0,1-1.4.17,4.75,4.75,0,0,1-2-.36,3.38,3.38,0,0,1-1.29-1,3.85,3.85,0,0,1-.71-1.53,8.72,8.72,0,0,1-.21-2Z"/><path d="M668.19,920.22a4,4,0,0,1,2.14-3.67,17.75,17.75,0,0,1,6.83-1.79,6.73,6.73,0,0,0-.13-1.35,3.23,3.23,0,0,0-.48-1.17,2.62,2.62,0,0,0-.92-.83,3,3,0,0,0-1.47-.32,5.88,5.88,0,0,0-2.38.48,11.77,11.77,0,0,0-2,1.08l-1-1.71a16,16,0,0,1,2.49-1.28,8.33,8.33,0,0,1,3.24-.62,4.48,4.48,0,0,1,3.87,1.64,7.22,7.22,0,0,1,1.2,4.36V924h-2l-.21-1.74h-.06a12.14,12.14,0,0,1-2.26,1.49,5.62,5.62,0,0,1-2.57.62,4.46,4.46,0,0,1-3.07-1.08A3.88,3.88,0,0,1,668.19,920.22Zm2.43-.18a2.08,2.08,0,0,0,.73,1.8,3,3,0,0,0,1.82.54,4.24,4.24,0,0,0,2-.5,9.68,9.68,0,0,0,2-1.46v-4a25.62,25.62,0,0,0-3.09.57,8,8,0,0,0-2,.78,2.89,2.89,0,0,0-1.1,1A2.55,2.55,0,0,0,670.62,920Z"/><path d="M684.27,902.64h2.46v18.6a1.29,1.29,0,0,0,.21.84.62.62,0,0,0,.48.24h.23a1.23,1.23,0,0,0,.31-.06l.33,1.86a2.16,2.16,0,0,1-.57.18,4.84,4.84,0,0,1-.84.06,2.3,2.3,0,0,1-2-.84,4.21,4.21,0,0,1-.6-2.46Z"/><path d="M691.92,902.64h2.46v18.6a1.29,1.29,0,0,0,.21.84.62.62,0,0,0,.48.24h.23a1.23,1.23,0,0,0,.31-.06l.33,1.86a2.16,2.16,0,0,1-.57.18,4.84,4.84,0,0,1-.84.06,2.3,2.3,0,0,1-2-.84,4.21,4.21,0,0,1-.6-2.46Z"/><path d="M704.91,920.22a4,4,0,0,1,2.14-3.67,17.75,17.75,0,0,1,6.83-1.79,6.73,6.73,0,0,0-.13-1.35,3.23,3.23,0,0,0-.48-1.17,2.62,2.62,0,0,0-.92-.83,3,3,0,0,0-1.47-.32,5.88,5.88,0,0,0-2.38.48,11.77,11.77,0,0,0-2,1.08l-1-1.71a16,16,0,0,1,2.49-1.28,8.33,8.33,0,0,1,3.24-.62,4.48,4.48,0,0,1,3.87,1.64,7.22,7.22,0,0,1,1.2,4.36V924h-2l-.21-1.74H714a12.14,12.14,0,0,1-2.26,1.49,5.62,5.62,0,0,1-2.57.62,4.46,4.46,0,0,1-3.07-1.08A3.88,3.88,0,0,1,704.91,920.22Zm2.43-.18a2.08,2.08,0,0,0,.73,1.8,3,3,0,0,0,1.82.54,4.24,4.24,0,0,0,2-.5,9.68,9.68,0,0,0,2-1.46v-4a25.62,25.62,0,0,0-3.09.57,8,8,0,0,0-2,.78,2.89,2.89,0,0,0-1.1,1A2.55,2.55,0,0,0,707.34,920Z"/><path d="M738,924l-4.74-8.31h-3.54V924H727.2V904.32h6.18a12.48,12.48,0,0,1,2.76.29,5.89,5.89,0,0,1,2.18.94,4.5,4.5,0,0,1,1.42,1.71,5.88,5.88,0,0,1,.51,2.58,5.43,5.43,0,0,1-1.2,3.69,6.12,6.12,0,0,1-3.21,1.89l5,8.58Zm-8.28-10.35H733a5.65,5.65,0,0,0,3.52-.95,3.4,3.4,0,0,0,1.21-2.87,3,3,0,0,0-1.21-2.73,6.55,6.55,0,0,0-3.52-.78h-3.3Z"/><path d="M743,916.74a8.82,8.82,0,0,1,.56-3.23A7.55,7.55,0,0,1,745,911.1a6.39,6.39,0,0,1,2.09-1.51,5.88,5.88,0,0,1,2.43-.53,6.12,6.12,0,0,1,2.48.48,4.84,4.84,0,0,1,1.83,1.38,6.34,6.34,0,0,1,1.13,2.16,9.53,9.53,0,0,1,.39,2.82,8.41,8.41,0,0,1-.09,1.35h-9.84a5.79,5.79,0,0,0,1.46,3.75,4.47,4.47,0,0,0,3.4,1.38,5.74,5.74,0,0,0,1.94-.31,8.57,8.57,0,0,0,1.69-.83l.87,1.62a12.39,12.39,0,0,1-2.13,1,7.41,7.41,0,0,1-2.67.45,7.14,7.14,0,0,1-2.75-.53,6.5,6.5,0,0,1-2.22-1.5,6.93,6.93,0,0,1-1.48-2.38A8.93,8.93,0,0,1,743,916.74Zm10.2-1.11a5.4,5.4,0,0,0-.95-3.43,3.2,3.2,0,0,0-2.65-1.19,3.6,3.6,0,0,0-1.48.32,4.11,4.11,0,0,0-1.27.9,4.8,4.8,0,0,0-.95,1.44,6.67,6.67,0,0,0-.5,2Z"/><path d="M757.83,920.22a4,4,0,0,1,2.14-3.67,17.75,17.75,0,0,1,6.83-1.79,6.73,6.73,0,0,0-.13-1.35,3.23,3.23,0,0,0-.48-1.17,2.62,2.62,0,0,0-.92-.83,3,3,0,0,0-1.47-.32,5.88,5.88,0,0,0-2.38.48,11.77,11.77,0,0,0-2,1.08l-1-1.71a16,16,0,0,1,2.49-1.28,8.33,8.33,0,0,1,3.24-.62,4.48,4.48,0,0,1,3.87,1.64,7.22,7.22,0,0,1,1.2,4.36V924h-2l-.21-1.74h-.06a12.14,12.14,0,0,1-2.26,1.49,5.62,5.62,0,0,1-2.57.62,4.46,4.46,0,0,1-3.07-1.08A3.88,3.88,0,0,1,757.83,920.22Zm2.43-.18a2.08,2.08,0,0,0,.73,1.8,3,3,0,0,0,1.82.54,4.24,4.24,0,0,0,2-.5,9.68,9.68,0,0,0,2-1.46v-4a25.62,25.62,0,0,0-3.09.57,8,8,0,0,0-2,.78,2.89,2.89,0,0,0-1.1,1A2.55,2.55,0,0,0,760.26,920Z"/><path d="M772.83,916.74a8.7,8.7,0,0,1,.57-3.25,7.32,7.32,0,0,1,1.53-2.42,6.37,6.37,0,0,1,2.23-1.5,7.17,7.17,0,0,1,2.69-.51,5.42,5.42,0,0,1,2.48.53,7.92,7.92,0,0,1,1.79,1.21l-1.23,1.59a7,7,0,0,0-1.37-.93,3.41,3.41,0,0,0-1.57-.36,4.16,4.16,0,0,0-1.83.41,4.11,4.11,0,0,0-1.44,1.16,5.71,5.71,0,0,0-.95,1.79,7.22,7.22,0,0,0-.34,2.29,7.37,7.37,0,0,0,.33,2.28,5.52,5.52,0,0,0,.92,1.76,4,4,0,0,0,1.43,1.14,4.36,4.36,0,0,0,3.73,0,6.83,6.83,0,0,0,1.52-1l1.11,1.62a8,8,0,0,1-2.21,1.38,6.49,6.49,0,0,1-2.53.51,7.13,7.13,0,0,1-2.7-.51,6.06,6.06,0,0,1-2.17-1.48,7,7,0,0,1-1.44-2.4A9.28,9.28,0,0,1,772.83,916.74Z"/><path d="M788,911.43h-2.16v-1.86l2.28-.15.3-4.08h2.07v4.08h3.93v2H790.5v8.1a3.72,3.72,0,0,0,.5,2.08,2,2,0,0,0,1.75.73,3.26,3.26,0,0,0,.84-.12,6.34,6.34,0,0,0,.81-.27l.48,1.86a13,13,0,0,1-1.31.38,6.14,6.14,0,0,1-1.4.17,4.75,4.75,0,0,1-2-.36,3.38,3.38,0,0,1-1.29-1,3.85,3.85,0,0,1-.71-1.53,8.72,8.72,0,0,1-.21-2Z"/><path d="M803.07,920.22a4,4,0,0,1,2.14-3.67,17.75,17.75,0,0,1,6.83-1.79,6.73,6.73,0,0,0-.13-1.35,3.23,3.23,0,0,0-.48-1.17,2.62,2.62,0,0,0-.92-.83,3,3,0,0,0-1.47-.32,5.88,5.88,0,0,0-2.38.48,11.77,11.77,0,0,0-2,1.08l-1-1.71a16,16,0,0,1,2.49-1.28,8.33,8.33,0,0,1,3.24-.62,4.48,4.48,0,0,1,3.87,1.64,7.22,7.22,0,0,1,1.2,4.36V924h-2l-.21-1.74h-.06a12.14,12.14,0,0,1-2.26,1.49,5.62,5.62,0,0,1-2.57.62,4.46,4.46,0,0,1-3.07-1.08A3.88,3.88,0,0,1,803.07,920.22Zm2.43-.18a2.08,2.08,0,0,0,.73,1.8,3,3,0,0,0,1.82.54,4.24,4.24,0,0,0,2-.5,9.68,9.68,0,0,0,2-1.46v-4a25.62,25.62,0,0,0-3.09.57,8,8,0,0,0-2,.78,2.89,2.89,0,0,0-1.1,1A2.55,2.55,0,0,0,805.5,920Z"/><path d="M821.6,925.23v4.92h-2.46V909.42h2l.21,1.68h.09a11.12,11.12,0,0,1,2.18-1.44,5.4,5.4,0,0,1,2.48-.6,5.63,5.63,0,0,1,2.49.53,4.85,4.85,0,0,1,1.8,1.5,7.05,7.05,0,0,1,1.09,2.34,11.62,11.62,0,0,1,.38,3.08,10,10,0,0,1-.51,3.32,7.69,7.69,0,0,1-1.38,2.47,5.84,5.84,0,0,1-2,1.54,5.68,5.68,0,0,1-2.4.53,4.92,4.92,0,0,1-2-.45,10.22,10.22,0,0,1-2-1.23Zm0-4.47a6.55,6.55,0,0,0,1.92,1.19,4.83,4.83,0,0,0,1.65.34,3.5,3.5,0,0,0,1.66-.41,4,4,0,0,0,1.32-1.14,5.59,5.59,0,0,0,.87-1.82,8.67,8.67,0,0,0,.31-2.43,10.6,10.6,0,0,0-.21-2.19,4.9,4.9,0,0,0-.68-1.69,3.25,3.25,0,0,0-1.2-1.1,3.72,3.72,0,0,0-1.76-.39,3.92,3.92,0,0,0-1.87.51,11,11,0,0,0-2,1.47Z"/><path d="M838.25,925.23v4.92h-2.46V909.42h2l.21,1.68h.09a11.12,11.12,0,0,1,2.18-1.44,5.4,5.4,0,0,1,2.48-.6,5.63,5.63,0,0,1,2.49.53,4.85,4.85,0,0,1,1.8,1.5,7.05,7.05,0,0,1,1.09,2.34,11.62,11.62,0,0,1,.38,3.08,10,10,0,0,1-.51,3.32,7.69,7.69,0,0,1-1.38,2.47,5.84,5.84,0,0,1-2,1.54,5.68,5.68,0,0,1-2.4.53,4.92,4.92,0,0,1-2-.45,10.22,10.22,0,0,1-2-1.23Zm0-4.47a6.55,6.55,0,0,0,1.92,1.19,4.83,4.83,0,0,0,1.65.34,3.5,3.5,0,0,0,1.66-.41,4,4,0,0,0,1.32-1.14,5.59,5.59,0,0,0,.87-1.82,8.67,8.67,0,0,0,.31-2.43,10.6,10.6,0,0,0-.21-2.19,4.9,4.9,0,0,0-.68-1.69,3.25,3.25,0,0,0-1.2-1.1,3.72,3.72,0,0,0-1.76-.39,3.92,3.92,0,0,0-1.87.51,11,11,0,0,0-2,1.47Z"/><path d="M859.76,906.42a1.74,1.74,0,0,1-1.22-.45,1.58,1.58,0,0,1,0-2.29,1.92,1.92,0,0,1,2.43,0,1.58,1.58,0,0,1,0,2.29A1.74,1.74,0,0,1,859.76,906.42Zm-1.26,3H861V924H858.5Z"/><path d="M865.88,909.42h2l.21,2.1h.09a11.93,11.93,0,0,1,2.21-1.75,5.05,5.05,0,0,1,2.68-.71,3.92,3.92,0,0,1,3.38,1.44,7.11,7.11,0,0,1,1.07,4.26V924h-2.46v-8.91a5.21,5.21,0,0,0-.66-3,2.41,2.41,0,0,0-2.1-.92,3.58,3.58,0,0,0-2,.57,13.09,13.09,0,0,0-2,1.68V924h-2.46Z"/><path d="M887.63,920.22a4,4,0,0,1,2.14-3.67,17.75,17.75,0,0,1,6.83-1.79,6.73,6.73,0,0,0-.13-1.35,3.21,3.21,0,0,0-.48-1.17,2.62,2.62,0,0,0-.91-.83,3,3,0,0,0-1.47-.32,5.88,5.88,0,0,0-2.38.48,11.76,11.76,0,0,0-2,1.08l-1-1.71a16,16,0,0,1,2.49-1.28,8.33,8.33,0,0,1,3.24-.62,4.48,4.48,0,0,1,3.87,1.64,7.22,7.22,0,0,1,1.2,4.36V924h-2l-.21-1.74h-.06a12.14,12.14,0,0,1-2.27,1.49,5.61,5.61,0,0,1-2.56.62,4.46,4.46,0,0,1-3.08-1.08A3.88,3.88,0,0,1,887.63,920.22Zm2.43-.18a2.08,2.08,0,0,0,.74,1.8,3,3,0,0,0,1.81.54,4.24,4.24,0,0,0,2-.5,9.69,9.69,0,0,0,2-1.46v-4a25.6,25.6,0,0,0-3.09.57,8,8,0,0,0-2,.78,2.89,2.89,0,0,0-1.09,1A2.56,2.56,0,0,0,890.06,920Z"/><path d="M908.78,914.16a12.88,12.88,0,0,1,.66-4.26,9.32,9.32,0,0,1,1.85-3.21,8.06,8.06,0,0,1,2.79-2,8.6,8.6,0,0,1,3.5-.71,6.51,6.51,0,0,1,3.14.74,8.29,8.29,0,0,1,2.23,1.69L921.53,908a6.3,6.3,0,0,0-1.74-1.34,4.72,4.72,0,0,0-2.19-.49,5.84,5.84,0,0,0-2.56.55,5.49,5.49,0,0,0-2,1.59,7.66,7.66,0,0,0-1.26,2.5,11.26,11.26,0,0,0-.45,3.3,11.86,11.86,0,0,0,.44,3.35A7.76,7.76,0,0,0,913,920a5.38,5.38,0,0,0,4.46,2.19,5.16,5.16,0,0,0,2.48-.57,7.65,7.65,0,0,0,2-1.62l1.41,1.53a8.4,8.4,0,0,1-2.61,2.1,7.3,7.3,0,0,1-3.36.75,8.47,8.47,0,0,1-3.44-.69,7.78,7.78,0,0,1-2.73-2,9.43,9.43,0,0,1-1.81-3.21A13.11,13.11,0,0,1,908.78,914.16Z"/><path d="M926.9,904.32h2.52V924H926.9Z"/><path d="M938.81,909.42h2.52l2.16,8.43q.24,1.05.45,2l.42,2h.12l.48-2q.24-1,.51-2l2.25-8.43h2.4l2.28,8.43.53,2q.25,1,.5,2h.12q.24-1,.45-2t.45-2l2.13-8.43h2.34L955,924h-3l-2.1-7.83q-.27-1.05-.49-2.07t-.5-2.13h-.12q-.24,1.11-.48,2.15t-.54,2.08l-2,7.8h-2.88Z"/><path d="M960.92,916.74a8.92,8.92,0,0,1,.56-3.25,7.39,7.39,0,0,1,1.49-2.42,6.2,6.2,0,0,1,2.14-1.5,6.7,6.7,0,0,1,5.13,0,6.23,6.23,0,0,1,2.15,1.5,7.42,7.42,0,0,1,1.48,2.42,8.92,8.92,0,0,1,.55,3.25,8.82,8.82,0,0,1-.55,3.22,7.25,7.25,0,0,1-1.48,2.4,6.32,6.32,0,0,1-2.15,1.48,6.7,6.7,0,0,1-5.13,0,6.29,6.29,0,0,1-2.14-1.48,7.22,7.22,0,0,1-1.49-2.4A8.82,8.82,0,0,1,960.92,916.74Zm2.55,0a8.06,8.06,0,0,0,.3,2.28,5.44,5.44,0,0,0,.85,1.76,3.94,3.94,0,0,0,1.34,1.14,3.81,3.81,0,0,0,3.42,0,3.92,3.92,0,0,0,1.33-1.14,5.38,5.38,0,0,0,.86-1.76,8.09,8.09,0,0,0,.3-2.28,8.25,8.25,0,0,0-.3-2.29,5.54,5.54,0,0,0-.86-1.79,3.87,3.87,0,0,0-1.33-1.16,3.81,3.81,0,0,0-3.42,0,3.88,3.88,0,0,0-1.34,1.16,5.6,5.6,0,0,0-.85,1.79A8.22,8.22,0,0,0,963.47,916.74Z"/><path d="M978.26,909.42h2l.21,2.64h.09a6.74,6.74,0,0,1,1.82-2.19,3.75,3.75,0,0,1,2.32-.81,3.88,3.88,0,0,1,1.56.3l-.48,2.16a5.78,5.78,0,0,0-.66-.18,3.91,3.91,0,0,0-.75-.06,3.27,3.27,0,0,0-1.94.75,6,6,0,0,0-1.75,2.61V924h-2.46Z"/><path d="M988.67,902.64h2.43V917.1h.09l6.21-7.68h2.73l-4.89,5.85,5.55,8.73h-2.7l-4.26-7-2.73,3.18V924h-2.43Z"/><path d="M1010.09,904.65a4,4,0,0,0-1.65-.36q-2,0-2,2.82v2.31h3.09v2h-3.09V924h-2.46V911.43h-2v-1.86l2-.15v-2.31a5.51,5.51,0,0,1,1-3.54,3.88,3.88,0,0,1,3.22-1.29,6.08,6.08,0,0,1,1.3.13,6.77,6.77,0,0,1,1.13.34Z"/><path d="M1012.28,902.64h2.46v18.6a1.28,1.28,0,0,0,.21.84.63.63,0,0,0,.48.24h.22a1.22,1.22,0,0,0,.31-.06l.33,1.86a2.16,2.16,0,0,1-.57.18,4.84,4.84,0,0,1-.84.06,2.3,2.3,0,0,1-2-.84,4.21,4.21,0,0,1-.6-2.46Z"/><path d="M1018.85,916.74a8.9,8.9,0,0,1,.55-3.25,7.4,7.4,0,0,1,1.48-2.42,6.23,6.23,0,0,1,2.15-1.5,6.7,6.7,0,0,1,5.13,0,6.2,6.2,0,0,1,2.14,1.5,7.42,7.42,0,0,1,1.49,2.42,8.94,8.94,0,0,1,.55,3.25,8.84,8.84,0,0,1-.55,3.22,7.25,7.25,0,0,1-1.49,2.4,6.29,6.29,0,0,1-2.14,1.48,6.7,6.7,0,0,1-5.13,0,6.32,6.32,0,0,1-2.15-1.48,7.23,7.23,0,0,1-1.48-2.4A8.8,8.8,0,0,1,1018.85,916.74Zm2.55,0a8.06,8.06,0,0,0,.3,2.28,5.38,5.38,0,0,0,.86,1.76,3.92,3.92,0,0,0,1.33,1.14,3.81,3.81,0,0,0,3.42,0,3.94,3.94,0,0,0,1.34-1.14,5.44,5.44,0,0,0,.85-1.76,8.06,8.06,0,0,0,.3-2.28,8.22,8.22,0,0,0-.3-2.29,5.6,5.6,0,0,0-.85-1.79,3.88,3.88,0,0,0-1.34-1.16,3.81,3.81,0,0,0-3.42,0,3.87,3.87,0,0,0-1.33,1.16,5.54,5.54,0,0,0-.86,1.79A8.22,8.22,0,0,0,1021.4,916.74Z"/><path d="M1034.36,909.42h2.52l2.16,8.43q.24,1.05.45,2t.42,2h.12l.48-2q.24-1,.51-2l2.25-8.43h2.4l2.28,8.43.53,2q.25,1,.49,2h.12q.24-1,.45-2t.45-2l2.13-8.43h2.34l-3.9,14.58h-3l-2.1-7.83q-.27-1.05-.49-2.07t-.5-2.13h-.12q-.24,1.11-.48,2.15t-.54,2.08l-2,7.8h-2.88Z"/><path d="M1055.39,927.66a5.11,5.11,0,0,0,2-1.5,3.43,3.43,0,0,0,.72-2.16,1.06,1.06,0,0,1-.3,0,1.89,1.89,0,0,1-1.25-.44,1.56,1.56,0,0,1-.52-1.27,1.6,1.6,0,0,1,.54-1.28,1.91,1.91,0,0,1,1.29-.46,1.76,1.76,0,0,1,1.51.78,3.61,3.61,0,0,1,.55,2.13,5.6,5.6,0,0,1-1,3.39,6.75,6.75,0,0,1-2.88,2.22Z"/><path d="M1071.23,906.42A1.74,1.74,0,0,1,1070,906a1.58,1.58,0,0,1,0-2.29,1.92,1.92,0,0,1,2.43,0,1.58,1.58,0,0,1,0,2.29A1.74,1.74,0,0,1,1071.23,906.42Zm-1.26,3h2.46V924H1070Z"/><path d="M1077.35,909.42h2l.21,2.1h.09a12,12,0,0,1,2.21-1.75,5.05,5.05,0,0,1,2.69-.71,3.92,3.92,0,0,1,3.38,1.44,7.12,7.12,0,0,1,1.06,4.26V924h-2.46v-8.91a5.2,5.2,0,0,0-.66-3,2.41,2.41,0,0,0-2.1-.92,3.59,3.59,0,0,0-2,.57,13,13,0,0,0-2,1.68V924h-2.46Z"/><path d="M1099.43,920.7a9.81,9.81,0,0,0,2,1.26,5.33,5.33,0,0,0,2.32.48,3.1,3.1,0,0,0,2.16-.66,2.11,2.11,0,0,0,.72-1.62,1.66,1.66,0,0,0-.3-1,3,3,0,0,0-.76-.74,5.59,5.59,0,0,0-1.07-.55l-1.2-.48q-.78-.27-1.56-.62a6.22,6.22,0,0,1-1.39-.84,4.22,4.22,0,0,1-1-1.16,3.06,3.06,0,0,1-.39-1.59,3.94,3.94,0,0,1,.34-1.63,3.77,3.77,0,0,1,1-1.32,4.68,4.68,0,0,1,1.58-.87,7,7,0,0,1,4.63.17,7.89,7.89,0,0,1,2,1.17l-1.17,1.56a7.9,7.9,0,0,0-1.56-.93A4.31,4.31,0,0,0,1104,911a2.81,2.81,0,0,0-2,.63,2,2,0,0,0-.65,1.47,1.41,1.41,0,0,0,.27.87,2.89,2.89,0,0,0,.72.66,5.23,5.23,0,0,0,1,.52l1.21.46,1.58.63a6,6,0,0,1,1.42.82,4.06,4.06,0,0,1,1,1.21,3.51,3.51,0,0,1,.4,1.74,4.13,4.13,0,0,1-.34,1.68,4,4,0,0,1-1,1.38,4.87,4.87,0,0,1-1.68.94,7,7,0,0,1-2.29.35,7.86,7.86,0,0,1-3-.57,9.23,9.23,0,0,1-2.46-1.44Z"/><path d="M1111.31,916.74a8.83,8.83,0,0,1,.56-3.23,7.57,7.57,0,0,1,1.47-2.42,6.38,6.38,0,0,1,2.09-1.51,5.88,5.88,0,0,1,2.43-.53,6.12,6.12,0,0,1,2.47.48,4.83,4.83,0,0,1,1.83,1.38,6.32,6.32,0,0,1,1.13,2.16,9.53,9.53,0,0,1,.39,2.82,8.46,8.46,0,0,1-.09,1.35h-9.84a5.79,5.79,0,0,0,1.46,3.75,4.47,4.47,0,0,0,3.41,1.38,5.74,5.74,0,0,0,1.93-.31,8.54,8.54,0,0,0,1.69-.83l.87,1.62a12.4,12.4,0,0,1-2.13,1,7.4,7.4,0,0,1-2.67.45,7.14,7.14,0,0,1-2.74-.53,6.5,6.5,0,0,1-2.22-1.5,6.93,6.93,0,0,1-1.48-2.38A8.92,8.92,0,0,1,1111.31,916.74Zm10.2-1.11a5.41,5.41,0,0,0-.95-3.43,3.21,3.21,0,0,0-2.66-1.19,3.6,3.6,0,0,0-1.49.32,4.12,4.12,0,0,0-1.27.9,4.81,4.81,0,0,0-.95,1.44,6.67,6.67,0,0,0-.5,2Z"/><path d="M1126.19,916.74a8.69,8.69,0,0,1,.57-3.25,7.3,7.3,0,0,1,1.53-2.42,6.38,6.38,0,0,1,2.23-1.5,7.17,7.17,0,0,1,2.69-.51,5.42,5.42,0,0,1,2.47.53,7.9,7.9,0,0,1,1.79,1.21l-1.23,1.59a7,7,0,0,0-1.37-.93,3.41,3.41,0,0,0-1.58-.36,4.17,4.17,0,0,0-1.83.41,4.11,4.11,0,0,0-1.44,1.16,5.72,5.72,0,0,0-.95,1.79,7.21,7.21,0,0,0-.34,2.29,7.39,7.39,0,0,0,.33,2.28,5.51,5.51,0,0,0,.92,1.76,4,4,0,0,0,1.42,1.14,4.36,4.36,0,0,0,3.74,0,6.84,6.84,0,0,0,1.51-1l1.11,1.62a8,8,0,0,1-2.21,1.38,6.5,6.5,0,0,1-2.54.51,7.13,7.13,0,0,1-2.7-.51,6.05,6.05,0,0,1-2.17-1.48,7,7,0,0,1-1.44-2.4A9.26,9.26,0,0,1,1126.19,916.74Z"/><path d="M1139.24,916.74a8.92,8.92,0,0,1,.56-3.25,7.39,7.39,0,0,1,1.49-2.42,6.2,6.2,0,0,1,2.14-1.5,6.7,6.7,0,0,1,5.13,0,6.23,6.23,0,0,1,2.15,1.5,7.42,7.42,0,0,1,1.48,2.42,8.92,8.92,0,0,1,.55,3.25,8.82,8.82,0,0,1-.55,3.22,7.25,7.25,0,0,1-1.48,2.4,6.32,6.32,0,0,1-2.15,1.48,6.7,6.7,0,0,1-5.13,0,6.29,6.29,0,0,1-2.14-1.48,7.22,7.22,0,0,1-1.49-2.4A8.82,8.82,0,0,1,1139.24,916.74Zm2.55,0a8.06,8.06,0,0,0,.3,2.28,5.44,5.44,0,0,0,.85,1.76,3.94,3.94,0,0,0,1.34,1.14,3.81,3.81,0,0,0,3.42,0,3.92,3.92,0,0,0,1.33-1.14,5.38,5.38,0,0,0,.86-1.76,8.09,8.09,0,0,0,.3-2.28,8.25,8.25,0,0,0-.3-2.29,5.54,5.54,0,0,0-.86-1.79,3.87,3.87,0,0,0-1.33-1.16,3.81,3.81,0,0,0-3.42,0,3.88,3.88,0,0,0-1.34,1.16,5.6,5.6,0,0,0-.85,1.79A8.22,8.22,0,0,0,1141.79,916.74Z"/><path d="M1156.58,909.42h2l.21,2.1h.09a12,12,0,0,1,2.21-1.75,5.06,5.06,0,0,1,2.69-.71,3.92,3.92,0,0,1,3.38,1.44,7.12,7.12,0,0,1,1.06,4.26V924h-2.46v-8.91a5.21,5.21,0,0,0-.66-3,2.41,2.41,0,0,0-2.1-.92,3.59,3.59,0,0,0-2,.57,13,13,0,0,0-2,1.68V924h-2.46Z"/><path d="M1171.94,916.74a9.2,9.2,0,0,1,.52-3.2,7.57,7.57,0,0,1,1.4-2.42,6.17,6.17,0,0,1,2-1.53,5.55,5.55,0,0,1,2.4-.54,5,5,0,0,1,2.19.45,9.76,9.76,0,0,1,1.89,1.23l-.12-2.49v-5.61h2.49V924h-2l-.21-1.71h-.09a9.24,9.24,0,0,1-2,1.46,5,5,0,0,1-2.41.62,5.4,5.4,0,0,1-4.4-2A8.63,8.63,0,0,1,1171.94,916.74Zm2.55,0a7,7,0,0,0,1,4.11,3.44,3.44,0,0,0,3,1.47,3.92,3.92,0,0,0,1.92-.5,6.9,6.9,0,0,0,1.8-1.51v-7.62a6.22,6.22,0,0,0-1.79-1.19,4.66,4.66,0,0,0-1.75-.34,3.44,3.44,0,0,0-1.64.41,4.12,4.12,0,0,0-1.33,1.14,5.68,5.68,0,0,0-.9,1.75A7.37,7.37,0,0,0,1174.49,916.71Z"/><path d="M1189.25,920.7a9.83,9.83,0,0,0,2,1.26,5.33,5.33,0,0,0,2.33.48,3.1,3.1,0,0,0,2.16-.66,2.11,2.11,0,0,0,.72-1.62,1.66,1.66,0,0,0-.3-1,3,3,0,0,0-.76-.74,5.65,5.65,0,0,0-1.07-.55l-1.2-.48q-.78-.27-1.56-.62a6.2,6.2,0,0,1-1.4-.84,4.22,4.22,0,0,1-1-1.16,3.06,3.06,0,0,1-.39-1.59,3.94,3.94,0,0,1,.34-1.63,3.75,3.75,0,0,1,1-1.32,4.68,4.68,0,0,1,1.58-.87,7,7,0,0,1,4.63.17,7.9,7.9,0,0,1,2,1.17l-1.17,1.56a8,8,0,0,0-1.56-.93,4.31,4.31,0,0,0-1.77-.36,2.8,2.8,0,0,0-2,.63,2,2,0,0,0-.65,1.47,1.41,1.41,0,0,0,.27.87,2.9,2.9,0,0,0,.72.66,5.26,5.26,0,0,0,1,.52l1.21.46,1.58.63a6,6,0,0,1,1.42.82,4.06,4.06,0,0,1,1,1.21,3.5,3.5,0,0,1,.41,1.74,4.12,4.12,0,0,1-.34,1.68,4,4,0,0,1-1,1.38,4.88,4.88,0,0,1-1.68.94,7,7,0,0,1-2.29.35,7.85,7.85,0,0,1-3-.57,9.25,9.25,0,0,1-2.46-1.44Z"/></svg>